<svg id="visual" viewBox="0 0 900 600" width="900" height="600" xmlns="http://www.w3.org/2000/svg" xmlns:xlink="http://www.w3.org/1999/xlink" version="1.1"><rect x="0" y="0" width="900" height="600" fill="#111827"></rect><path d="M0 439L21.5 429.5C43 420 86 401 128.8 401.7C171.7 402.3 214.3 422.7 257.2 430.2C300 437.7 343 432.3 385.8 421.8C428.7 411.3 471.3 395.7 514.2 385C557 374.3 600 368.7 642.8 373.3C685.7 378 728.3 393 771.2 391.7C814 390.3 857 372.7 878.5 363.8L900 355L900 601L878.5 601C857 601 814 601 771.2 601C728.3 601 685.7 601 642.8 601C600 601 557 601 514.2 601C471.3 601 428.7 601 385.8 601C343 601 300 601 257.2 601C214.3 601 171.7 601 128.8 601C86 601 43 601 21.5 601L0 601Z" fill="#1e293b"></path><path d="M0 415L21.5 420.8C43 426.7 86 438.3 128.8 437.5C171.7 436.7 214.3 423.3 257.2 427.2C300 431 343 452 385.8 451C428.7 450 471.3 427 514.2 416.5C557 406 600 408 642.8 417.8C685.7 427.7 728.3 445.3 771.2 442.8C814 440.3 857 417.7 878.5 406.3L900 395L900 601L878.5 601C857 601 814 601 771.2 601C728.3 601 685.7 601 642.8 601C600 601 557 601 514.2 601C471.3 601 428.7 601 385.8 601C343 601 300 601 257.2 601C214.3 601 171.7 601 128.8 601C86 601 43 601 21.5 601L0 601Z" fill="#29526b"></path><path d="M0 508L21.5 508.2C43 508.3 86 508.7 128.8 501.8C171.7 495 214.3 481 257.2 476.3C300 471.7 343 476.3 385.8 477.2C428.7 478 471.3 475 514.2 475C557 475 600 478 642.8 478.2C685.7 478.3 728.3 475.7 771.2 480.2C814 484.7 857 496.3 878.5 502.2L900 508L900 601L878.5 601C857 601 814 601 771.2 601C728.3 601 685.7 601 642.8 601C600 601 557 601 514.2 601C471.3 601 428.7 601 385.8 601C343 601 300 601 257.2 601C214.3 601 171.7 601 128.8 601C86 601 43 601 21.5 601L0 601Z" fill="#297f97"></path><path d="M0 522L21.5 521.2C43 520.3 86 518.7 128.8 517.5C171.7 516.3 214.3 515.7 257.2 510.2C300 504.7 343 494.3 385.8 492.7C428.7 491 471.3 498 514.2 507.7C557 517.3 600 529.7 642.8 527.2C685.7 524.7 728.3 507.3 771.2 504.8C814 502.3 857 514.7 878.5 520.8L900 527L900 601L878.5 601C857 601 814 601 771.2 601C728.3 601 685.7 601 642.8 601C600 601 557 601 514.2 601C471.3 601 428.7 601 385.8 601C343 601 300 601 257.2 601C214.3 601 171.7 601 128.8 601C86 601 43 601 21.5 601L0 601Z" fill="#33b0ba"></path><path d="M0 564L21.5 563.3C43 562.7 86 561.3 128.8 561.3C171.7 561.3 214.3 562.7 257.2 560.5C300 558.3 343 552.7 385.8 548.3C428.7 544 471.3 541 514.2 544C557 547 600 556 642.8 560.7C685.7 565.3 728.3 565.7 771.2 560.3C814 555 857 544 878.5 538.5L900 533L900 601L878.5 601C857 601 814 601 771.2 601C728.3 601 685.7 601 642.8 601C600 601 557 601 514.2 601C471.3 601 428.7 601 385.8 601C343 601 300 601 257.2 601C214.3 601 171.7 601 128.8 601C86 601 43 601 21.5 601L0 601Z" fill="#5ee2d2"></path></svg>